<svg version="1.1" xmlns="http://www.w3.org/2000/svg" xmlns:xlink="http://www.w3.org/1999/xlink" width="37.47056" height="37.14598" viewBox="0,0,37.47056,37.14598"><g transform="translate(-221.26472,-161.42701)"><g data-paper-data="{&quot;isPaintingLayer&quot;:true}" fill-rule="nonzero" stroke="none" stroke-width="1" stroke-linecap="butt" stroke-linejoin="miter" stroke-miterlimit="10" stroke-dasharray="" stroke-dashoffset="0" style="mix-blend-mode: normal"><g><path d="M256.84838,181.58923c0,8.51562 -7.54338,15.42097 -16.85019,15.42097c-9.30681,0 -16.84959,-6.90242 -16.84959,-15.42097c0,-8.51562 7.54217,-12.47125 16.84959,-12.47125c9.30621,-0.00059 16.85019,3.95621 16.85019,12.47125z" fill="#ec1c2c"/><g fill="#231f20"><path d="M258.73528,181.42451c0,9.47053 -8.38775,17.14848 -18.73588,17.14848c-10.34632,0 -18.73468,-7.67795 -18.73468,-17.14848c0,-8.34621 6.51712,-12.10371 15.14638,-12.87982c0,0 2.72706,-0.33999 5.5023,-0.11079c9.44593,0.42792 16.82188,4.11331 16.82188,12.99061zM255.87693,181.67599c0,-7.3872 -6.02687,-11.12828 -13.82139,-11.67696c0,0 -4.94279,0.06741 -5.09276,0.08441c-7.31452,0.78608 -12.83669,4.51955 -12.83669,11.59137c0,8.02263 7.10553,14.52878 15.87392,14.52878c8.76778,0 15.87331,-6.50498 15.87693,-14.52761z"/><path d="M245.39148,173.77118c-2.14888,0.1061 -4.20743,0.15886 -6.36053,0.39392c-1.43761,0.1571 -2.82282,0.16941 -3.88762,-0.8875c-0.23127,-0.23155 0.07107,-0.63074 0.36015,-0.45313c0.71188,0.43437 1.42918,0.61023 2.15069,0.64423c0.04698,0.03752 2.57408,-0.28723 3.72802,-0.64364c1.39244,-0.3693 2.78608,-0.67412 4.1731,-0.22803c0.66309,0.21337 0.53481,1.13839 -0.16382,1.17414z"/></g><path d="M228.82617,181.50658c0,2.01123 1.11419,3.64143 -0.05059,3.64143c-1.16478,0 -2.10793,-1.6302 -2.10793,-3.64143c0,-2.01064 0.94315,-3.64084 2.10793,-3.64084c1.16478,0 0.05059,1.63079 0.05059,3.64084z" fill="#ffffff"/></g><g><path d="M235.78896,164.16993c0.61491,-0.35758 1.22802,-0.71633 1.84233,-1.07449c0.44206,0.66123 0.88654,1.30662 1.24308,2.04112c1.3021,2.67538 1.01542,5.50142 0.97808,8.33097c-0.22585,0.05217 -0.58841,0.08969 -0.81185,0.12838c0.15538,-3.60391 -0.72573,-6.90769 -3.25163,-9.42598z" fill="#99661d"/><path d="M241.31836,172.23125c0,0 -0.13852,1.0997 -0.15117,1.30721c0,0 -2.27114,0.65888 -3.16189,0.32944l-0.0277,-0.94318c0.01807,-1.88461 -0.5842,-3.90873 -0.94074,-4.54241c-0.17044,-0.30248 -0.85702,-2.03174 -2.9511,-3.84366c-0.35895,-0.30892 -0.23789,-0.88808 0.14575,-1.11259c1.08829,-0.63543 2.17358,-1.27087 3.26067,-1.9063c0.34931,-0.20341 0.76187,-0.05158 0.99856,0.25499c3.32932,4.31321 2.92942,10.01041 2.82764,10.4565zM239.79101,172.64979c0.06745,-2.60387 0.29511,-5.02367 -0.91665,-7.51323c-0.35654,-0.7345 -0.80101,-1.3799 -1.24308,-2.04112c-0.61431,0.35816 -1.22742,0.71691 -1.84233,1.07449c2.38618,2.37877 3.36064,5.25756 3.33053,8.60707v0.67529l0.66791,-0.08265z" fill="#231f20"/></g></g></g></svg>