<svg version="1.1" xmlns="http://www.w3.org/2000/svg" xmlns:xlink="http://www.w3.org/1999/xlink" width="53.12433" height="28.87931" viewBox="0,0,53.12433,28.87931"><g transform="translate(-213.43783,-166.06035)"><g data-paper-data="{&quot;isPaintingLayer&quot;:true}" fill-rule="nonzero" stroke="none" stroke-width="0.63025" stroke-linecap="butt" stroke-linejoin="miter" stroke-miterlimit="10" stroke-dasharray="" stroke-dashoffset="0" style="mix-blend-mode: normal"><g><g><path d="M239.70705,193.21116c-0.37102,0 -0.57925,-0.00764 -0.5894,-0.00809c-25.33203,-2.05015 -24.86108,-15.6773 -24.82848,-16.25654c0.1083,-1.93002 1.2219,-3.90096 2.0425,-5.10861c1.21976,1.42885 3.5396,2.53831 6.90909,3.30213c3.04442,0.69037 7.64597,1.73401 15.53455,1.79309l0.51414,0.00197c0.22505,0 20.97798,-0.06491 24.60851,-5.31793c1.17817,1.62621 1.69677,4.89975 1.74896,6.97138c-3.70284,13.91605 -22.25047,14.62261 -25.93986,14.62261c0.00053,0 0,0 0,0z" fill="#65cbeb"/><path d="M263.72838,172.95827c-5.26389,4.54178 -22.23809,4.69247 -24.4384,4.69247c-0.17794,0 -0.35134,-0.00098 -0.52145,-0.00197c-7.99518,-0.06006 -12.65844,-1.11755 -15.74446,-1.81745c-2.90807,-0.65981 -5.09325,-1.58188 -6.52507,-2.75141c-0.64666,1.0994 -1.29101,2.51924 -1.36849,3.90043c-0.03928,0.69846 -0.05335,4.37059 3.52383,8.06177c4.03014,4.15938 10.93977,6.66432 20.53793,7.44721c0.07303,0.00242 0.24981,0.0062 0.51477,0.0062c3.56703,0 21.47867,-0.67562 25.09566,-13.97899c-0.05388,-1.67826 -0.41083,-4.0049 -1.07433,-5.55827M263.72838,172.95827l-47.12446,-2.72092v0c-0.08479,0.25841 -0.05949,0.53211 0.13243,0.81625c1.10862,1.64724 3.73384,2.71812 6.72162,3.39555c2.98778,0.67751 7.54275,1.71018 15.32463,1.76889c0.16556,0.00144 0.33397,0.00189 0.50684,0.00189c7.96142,0 23.62733,-1.34019 24.2846,-5.95542c2.78909,1.6163 2.91653,8.39599 2.91653,8.39599c-3.79778,14.55399 -23.05423,15.26539 -26.78353,15.26539c-0.40415,0 -0.62645,-0.00862 -0.62645,-0.00862c-23.57461,-1.9071 -25.81981,-13.66762 -25.63287,-17.00508c0.18694,-3.33738 3.08717,-6.67484 3.08717,-6.67484h0.06902c0,0.00045 0,0 0,0z" fill="#000000"/></g><g><path d="M238.70058,176.93314c-7.87334,-0.06241 -12.46643,-1.16854 -15.50587,-1.90036c-3.29094,-0.79242 -5.49909,-1.95097 -6.38649,-3.35077c-0.08309,-0.1311 -0.10215,-0.24124 -0.06225,-0.36856c0.19192,-0.62312 1.60922,-1.36265 2.8452,-1.78697l0.14036,-0.04675c5.95366,-1.79022 12.65675,-2.70375 19.88682,-2.70375c10.82408,0 19.56745,2.05348 21.36254,2.76101c1.77309,0.69944 2.20584,1.44178 2.29846,1.66109c-0.79254,3.95626 -14.48542,5.73748 -24.06515,5.73748l-0.51361,-0.00242z" fill="#660000"/><path d="M239.61834,167.49063c-7.1044,0 -13.68673,0.89258 -19.56691,2.65231l-0.09601,0.03003l-0.01461,0.0053l-0.02743,0.00999l-0.03206,0.00999c-1.22529,0.42386 -2.05488,0.95075 -2.27602,1.22868c0.81775,1.19002 2.82552,2.19698 5.81953,2.91783c2.99562,0.72138 7.52307,1.81178 15.28366,1.87328c0.1644,0.00144 0.33282,0.00189 0.50515,0.00189c3.90385,0 9.86704,-0.3476 14.89741,-1.32309c4.70708,-0.91255 7.74314,-2.24653 8.27696,-3.61387c-0.17509,-0.22127 -0.63428,-0.65277 -1.76196,-1.09758c-1.50707,-0.59407 -10.22853,-2.69475 -21.00772,-2.69475M239.61834,167.49063v-1.43028v0c11.12777,0 20.02326,2.16029 21.71664,2.82728c2.6539,1.04697 2.79978,2.27323 2.79978,2.27323c-0.67463,5.02903 -16.75084,6.48935 -24.92164,6.48935c-0.17741,0 -0.35143,-0.00045 -0.52091,-0.00189c-7.98672,-0.06339 -12.66129,-1.18904 -15.72763,-1.9276c-3.06642,-0.73848 -5.76066,-1.90468 -6.8984,-3.69974c-0.19647,-0.30993 -0.22229,-0.60791 -0.13528,-0.8897c0.36319,-1.17906 2.74812,-2.06346 3.34429,-2.26801c0.00276,-0.00091 0.00615,-0.00189 0.00837,-0.0028c0.0399,-0.01339 0.06964,-0.0239 0.09146,-0.03056c0.00338,-0.00144 0.00623,-0.00189 0.009,-0.00287c0.0163,-0.00567 0.02805,-0.00953 0.02805,-0.00953c6.85013,-2.06104 13.88774,-2.75716 20.20627,-2.75716z" fill="#000000"/></g></g><g><path d="M240.31657,194.44375c-0.75665,0 -1.19385,-0.02231 -1.20338,-0.02278c-25.61773,-2.16053 -25.13726,-16.58967 -25.10413,-17.20328c0.12121,-2.25538 1.46887,-4.55206 2.30915,-5.77881c1.09508,1.59596 3.44751,2.82973 6.99495,3.66803c3.03098,0.7165 7.61177,1.79921 15.46437,1.86031l0.51192,0.00197c0.22897,0 21.90696,-0.07001 24.59559,-5.81555c2.00946,1.88372 2.26871,5.95723 2.04758,7.81013c-1.71645,14.36252 -20.03893,15.48 -25.61604,15.48c0.00062,0 0.00062,0 0,0z" fill="#cc7700"/><path d="M263.96305,172.05295c-4.12392,5.34653 -23.76262,5.41363 -24.67423,5.41363c-0.17625,0 -0.34796,-0.00095 -0.51637,-0.00197c-7.92384,-0.06213 -12.54561,-1.1543 -15.6041,-1.87726c-3.20562,-0.75773 -5.48618,-1.84391 -6.79901,-3.23575c-0.77518,1.24575 -1.703,3.08871 -1.80008,4.88989c-0.04106,0.76025 -0.05673,4.75374 3.65119,8.74131c4.13229,4.44413 11.17889,7.11641 20.94378,7.94274c0.08755,0.00394 0.49954,0.02089 1.15235,0.02089c5.45697,0 23.39052,-1.08421 25.05755,-15.03439c0.23352,-1.95429 -0.10883,-5.07722 -1.41107,-6.85908M263.96305,172.05295l-47.35913,-1.81561v0c-0.08479,0.26932 -0.05949,0.55456 0.13243,0.85068c1.10862,1.71674 3.73384,2.8328 6.72162,3.53881c2.98778,0.70609 7.54275,1.78234 15.32463,1.84352c0.16556,0.0015 0.33397,0.00197 0.50684,0.00197c7.96142,0 23.62733,-1.39673 24.2846,-6.20668c2.78909,1.6845 3.1871,6.48191 2.91653,8.75021c-1.78378,14.92906 -21.06499,15.92379 -26.174,15.92379c-0.78524,0 -1.23597,-0.02334 -1.23597,-0.02334c-23.57461,-1.98756 -25.81981,-14.24426 -25.63287,-17.72252c0.18694,-3.47818 3.08717,-6.95645 3.08717,-6.95645h0.06902c0,0.00047 0,0 0,0z" fill="#000000"/></g></g></g></svg>